<?xml version="1.0" standalone="no"?>
<!DOCTYPE svg PUBLIC "-//W3C//DTD SVG 20010904//EN"
 "http://www.w3.org/TR/2001/REC-SVG-20010904/DTD/svg10.dtd">
<svg version="1.0" xmlns="http://www.w3.org/2000/svg"
 width="277.000000pt" height="282.000000pt" viewBox="0 0 277.000000 282.000000"
 preserveAspectRatio="xMidYMid meet">

<g transform="translate(0.000000,282.000000) scale(0.100000,-0.100000)"
fill="#000000" stroke="none">
<path d="M1414 1912 c-12 -8 -27 -54 -29 -91 -1 -28 27 -67 55 -76 26 -8 26
-41 0 -55 -10 -6 -59 -24 -107 -41 -48 -17 -94 -40 -101 -50 -7 -10 -20 -19
-28 -19 -17 0 -10 41 12 78 13 19 13 22 -1 22 -8 0 -24 -9 -34 -19 -23 -23
-35 -16 -20 10 7 13 6 19 -1 19 -6 0 -13 -7 -17 -15 -6 -17 14 -103 30 -122 5
-7 6 -13 3 -13 -4 0 1 -13 11 -30 9 -16 20 -30 23 -30 3 0 12 16 19 35 9 25
29 46 69 72 31 21 59 41 60 45 2 5 9 8 15 8 6 0 19 7 29 17 10 9 18 11 18 5 0
-6 -34 -36 -75 -67 -94 -69 -130 -120 -121 -170 6 -30 11 -35 35 -35 27 0 29
3 28 36 -1 28 5 42 27 60 53 47 126 15 126 -55 0 -65 -20 -74 -158 -73 -278 2
-358 5 -373 13 -9 5 -20 4 -26 -2 -14 -14 -223 -15 -249 -1 -16 8 -24 8 -33
-1 -6 -6 -36 -12 -66 -13 l-55 -2 -1 37 c0 29 -2 32 -9 16 -8 -19 -8 -19 -18
5 -11 25 -11 25 -11 -7 -1 -27 -6 -34 -34 -44 -36 -13 -49 -51 -22 -66 11 -7
15 -40 17 -163 l3 -155 32 -3 32 -3 3 158 3 158 98 3 c92 3 97 2 97 -18 0 -17
-6 -20 -48 -20 -27 0 -57 -7 -70 -16 -20 -14 -22 -23 -22 -123 0 -123 9 -141
73 -141 35 0 37 2 37 34 0 26 -5 35 -21 39 -18 5 -20 12 -17 64 3 57 3 58 35
61 l32 3 3 -98 3 -98 32 -3 32 -3 3 158 3 158 88 3 87 3 0 -111 c0 -110 0
-111 -22 -108 -20 3 -23 10 -26 56 -2 40 1 54 12 58 10 4 16 19 16 40 0 32 -2
34 -34 34 -57 0 -66 -18 -66 -129 0 -115 10 -131 78 -131 31 0 42 -4 42 -15 0
-10 11 -15 35 -15 l35 0 0 110 0 110 25 0 c21 0 25 -5 26 -32 2 -53 -2 -83
-12 -86 -5 -2 -9 -19 -9 -38 0 -31 3 -34 30 -34 55 0 70 28 70 128 0 110 -11
130 -78 134 -26 2 -46 8 -44 13 1 6 58 10 145 10 l142 0 0 -50 c0 -44 -3 -50
-22 -53 -16 -2 -22 3 -25 20 -2 18 -9 23 -33 23 l-30 0 -3 -109 c-4 -141 0
-146 110 -146 l78 0 0 35 0 34 -57 3 c-57 3 -58 3 -61 36 -3 32 -3 32 42 32
65 0 76 16 76 106 l0 74 30 0 30 0 0 -160 0 -160 35 0 35 0 0 160 0 160 31 0
c28 0 30 2 27 33 -3 29 -6 32 -31 29 -28 -3 -29 -2 -22 29 7 30 25 76 44 109
46 83 50 104 26 150 -15 30 -14 34 15 31 22 -2 78 53 86 85 4 16 2 34 -5 43
-6 9 -14 24 -17 33 -4 10 -19 18 -37 20 -22 2 -35 11 -47 33 -18 33 -48 42
-79 26 -13 -7 -22 -8 -26 -1 -7 12 -25 13 -41 2z"/>
<path d="M1758 1674 c-4 -3 -4 -12 -1 -20 3 -8 -2 -17 -11 -20 -30 -12 -86
-108 -86 -149 0 -39 -46 -155 -61 -155 -5 0 -9 5 -9 10 0 6 -4 10 -10 10 -6 0
-10 -27 -10 -60 l0 -59 78 -3 77 -3 0 -50 c0 -44 -3 -50 -22 -53 -18 -3 -23 2
-23 17 0 17 -6 21 -35 21 l-35 0 0 -106 c0 -143 1 -144 106 -144 l85 0 -3 33
c-3 31 -4 32 -58 37 -53 5 -55 6 -55 35 0 28 2 30 45 33 25 2 50 8 55 13 6 6
12 45 15 87 5 74 6 77 30 77 l25 0 3 -157 3 -158 34 0 34 0 3 158 3 157 170 2
c94 2 176 -1 184 -6 31 -20 -3 -31 -95 -31 l-94 0 0 -35 c0 -31 3 -35 25 -35
22 0 25 -4 25 -39 0 -33 -4 -40 -26 -45 -56 -14 -82 15 -69 80 l6 34 -41 0
-40 0 0 -66 c0 -63 11 -101 34 -116 6 -4 45 -8 86 -8 103 0 118 11 122 93 l3
62 35 0 35 0 3 -102 3 -103 34 0 34 0 3 158 c3 149 4 157 23 157 19 0 20 -8
23 -157 l3 -158 34 0 34 0 3 158 3 157 78 3 78 3 -3 47 -3 47 -45 2 c-25 2
-53 5 -62 7 -10 2 -18 -1 -18 -7 0 -8 -3 -8 -11 0 -6 6 -34 9 -70 6 -65 -6
-73 3 -43 45 9 13 13 29 10 37 -2 7 11 30 30 51 33 34 38 36 81 30 40 -5 44
-4 38 12 -4 9 -12 36 -18 59 -6 25 -15 39 -22 37 -6 -3 -18 2 -25 11 -18 22
-33 19 -20 -5 14 -27 -10 -37 -54 -23 -17 6 -91 10 -164 9 -108 -2 -136 -6
-149 -19 -13 -13 -14 -21 -5 -41 23 -50 -21 -115 -92 -135 -44 -12 -56 -8 -56
17 0 26 -44 85 -84 113 -40 27 -45 39 -16 39 11 0 20 5 20 10 0 6 -15 8 -40 4
-32 -5 -41 -3 -46 10 -4 10 0 22 9 29 9 7 17 21 19 32 2 15 -3 21 -22 23 -14
2 -29 0 -32 -4z m74 -140 c52 -15 110 -136 74 -156 -9 -5 -16 -15 -16 -22 0
-15 -43 -30 -48 -17 -1 4 -21 3 -42 -3 -28 -7 -43 -7 -51 1 -14 14 -21 171 -8
195 10 19 28 19 91 2z m492 -100 c8 -20 8 -89 0 -97 -3 -3 -17 -1 -31 4 -18 6
-30 6 -39 -2 -9 -8 -14 -8 -14 -1 0 6 -9 13 -19 17 -39 12 -33 75 7 75 15 0
34 5 42 10 23 15 47 12 54 -6z m-619 -51 c-1 -45 -3 -46 -33 -47 -18 -1 -32 0
-32 2 0 10 53 92 60 92 4 0 7 -21 5 -47z m674 33 c10 -11 9 -21 -3 -44 -8 -16
-12 -33 -8 -37 4 -5 1 -5 -5 -1 -15 8 -18 96 -4 96 5 0 14 -6 20 -14z m-205
-45 c15 -16 24 -31 19 -34 -15 -9 -118 1 -117 12 2 26 5 30 32 39 38 14 35 15
66 -17z m-127 13 c-3 -3 -12 -4 -19 -1 -8 3 -5 6 6 6 11 1 17 -2 13 -5z m13
-20 c0 -3 -4 -13 -9 -22 -7 -14 -19 -17 -50 -14 -49 5 -53 18 -8 31 38 11 67
13 67 5z"/>
<path d="M192 1564 c-6 -3 -10 -10 -7 -15 4 -5 0 -6 -8 -3 -8 3 -18 1 -22 -5
-6 -10 20 -16 52 -12 30 4 153 -37 153 -51 0 -12 60 -39 70 -33 26 16 -4 85
-37 85 -6 0 -16 6 -22 14 -7 8 -20 15 -29 16 -9 0 -44 3 -77 5 -33 2 -66 2
-73 -1z m123 -24 c3 -5 -1 -10 -10 -10 -9 0 -13 5 -10 10 3 6 8 10 10 10 2 0
7 -4 10 -10z m45 -20 c0 -5 -4 -10 -10 -10 -5 0 -10 5 -10 10 0 6 5 10 10 10
6 0 10 -4 10 -10z m50 -30 c0 -5 -7 -10 -16 -10 -8 0 -12 5 -9 10 3 6 10 10
16 10 5 0 9 -4 9 -10z"/>
<path d="M188 1339 c-13 -7 -18 -23 -18 -54 0 -44 0 -45 34 -45 26 0 35 5 39
21 4 13 12 20 24 17 28 -5 31 -83 4 -97 -13 -7 -22 -8 -26 -1 -3 5 -22 10 -41
10 l-34 0 0 -94 c0 -121 4 -126 111 -126 l79 0 0 35 0 34 -57 3 c-54 3 -58 5
-61 30 -3 28 7 34 62 37 50 2 56 15 56 117 0 115 -7 124 -93 124 -34 0 -70 -5
-79 -11z"/>
</g>
</svg>
